<?xml version="1.0" encoding="iso-8859-1"?>
<!-- Uploaded to: SVG Repo, www.svgrepo.com, Generator: SVG Repo Mixer Tools -->
<svg version="1.1" id="Layer_1" xmlns="http://www.w3.org/2000/svg" xmlns:xlink="http://www.w3.org/1999/xlink" 
	 viewBox="0 0 512 512" xml:space="preserve">
<path style="fill:#79CAE8;" d="M130.364,349.501l-39.31-24.19c-1.534-0.944-2.486-2.649-2.486-4.449V213.42
	c0-2.881,2.344-5.224,5.224-5.224h36.571v-31.347H93.792c-20.165,0-36.571,16.406-36.571,36.571v107.441
	c0,12.606,6.669,24.54,17.405,31.146l55.738,34.301C130.364,386.308,130.364,349.501,130.364,349.501z"/>
<path style="fill:#FFFFFF;" d="M285.008,44.408h-37.616V18.286c0-5.771,4.678-10.449,10.449-10.449h16.718
	c5.771,0,10.449,4.678,10.449,10.449V44.408z"/>
<g>
	<path style="fill:#79CAE8;" d="M370.168,94.041H162.233l0,0c0-27.412,22.221-49.633,49.633-49.633h108.669
		C347.946,44.408,370.168,66.629,370.168,94.041L370.168,94.041z"/>
	<polygon style="fill:#79CAE8;" points="402.037,154.645 402.037,328.098 452.192,154.645 	"/>
</g>
<path style="fill:#4B92B9;" d="M381.139,472.816H151.262c-11.542,0-20.898-9.356-20.898-20.898V94.041h271.673v357.878
	C402.037,463.46,392.681,472.816,381.139,472.816z"/>
<rect x="97.97" y="472.816" style="fill:#FFFFFF;" width="336.457" height="31.347"/>
<rect x="247.912" y="152.816" style="fill:#FF503D;" width="36.571" height="261.224"/>
<path style="fill:#FFFFFF;" d="M284.486,152.816v112.327c0,10.094-8.192,18.286-18.286,18.286c-5.047,0-9.613-2.048-12.925-5.36
	c-3.312-3.302-5.36-7.879-5.36-12.925V152.816H284.486z"/>
<path d="M255.229,18.286c0-1.44,1.172-2.612,2.612-2.612h16.718c1.44,0,2.612,1.172,2.612,2.612v10.449h15.673V18.286
	C292.845,8.203,284.642,0,274.559,0h-16.718c-10.082,0-18.286,8.203-18.286,18.286v10.449h15.673V18.286z"/>
<path d="M409.874,451.918v-122.71l52.742-182.4h-52.742V86.204h-32.418c-3.836-27.993-27.891-49.633-56.921-49.633H211.866
	c-29.029,0-53.085,21.64-56.921,49.633h-32.418v82.808H93.792c-24.487,0-44.408,19.921-44.408,44.408v107.436
	c0,15.314,8.1,29.808,21.138,37.823l52.005,31.999v61.239c0,4.702,1.142,9.14,3.153,13.061H90.135V512h352.131v-47.02H406.72
	C408.732,461.058,409.874,456.62,409.874,451.918z M441.768,162.482l-31.894,110.302V162.482H441.768z M211.866,52.245h108.669
	c20.367,0,37.369,14.647,41.049,33.959H170.817C174.497,66.892,191.498,52.245,211.866,52.245z M122.527,335.481l-26.122-16.082
	V216.033h26.122V335.481z M78.733,345.329c-8.435-5.186-13.676-14.563-13.676-24.473V213.42c0-15.845,12.89-28.735,28.735-28.735
	h28.735v15.673H93.792c-7.202,0-13.061,5.859-13.061,13.061v107.436c0,4.514,2.388,8.78,6.215,11.125l35.581,21.904v18.39
	L78.733,345.329z M138.2,451.918V101.878h256v350.041c0,7.203-5.859,13.061-13.061,13.061H151.262
	C144.059,464.98,138.2,459.121,138.2,451.918z M426.592,496.327H105.808v-15.673h320.784V496.327z"/>
<path d="M240.078,421.878h52.245V144.98h-52.245V421.878z M255.751,406.204V289.088c3.254,1.423,6.793,2.178,10.449,2.178
	c3.714,0,7.247-0.784,10.449-2.188v117.127H255.751z M255.751,160.653h20.898v104.49c0,5.762-4.687,10.449-10.449,10.449
	c-2.785,0-5.407-1.089-7.393-3.073c-1.971-1.964-3.056-4.584-3.056-7.376V160.653z"/>
</svg>